HIERARCHY
ROOT mixamorig:Hips
{
	OFFSET -0.000008 104.274872 1.554316
	CHANNELS 6 Xposition Yposition Zposition Xrotation Yrotation Zrotation
	JOINT mixamorig:Spine
	{
		OFFSET -0.000005 10.181595 0.131519
		CHANNELS 6 Xposition Yposition Zposition Xrotation Yrotation Zrotation
		JOINT mixamorig:Spine1
		{
			OFFSET -0.000000 9.893959 -1.470707
			CHANNELS 6 Xposition Yposition Zposition Xrotation Yrotation Zrotation
			JOINT mixamorig:Spine2
			{
				OFFSET -0.000000 9.220757 -1.370641
				CHANNELS 6 Xposition Yposition Zposition Xrotation Yrotation Zrotation
				JOINT mixamorig:Neck
				{
					OFFSET 0.000001 16.740417 -2.049036
					CHANNELS 6 Xposition Yposition Zposition Xrotation Yrotation Zrotation
					JOINT mixamorig:Head
					{
						OFFSET 0.000000 9.617874 1.685006
						CHANNELS 6 Xposition Yposition Zposition Xrotation Yrotation Zrotation
						JOINT mixamorig:HeadTop_End
						{
							OFFSET 0.000002 22.037354 7.501101
							CHANNELS 6 Xposition Yposition Zposition Xrotation Yrotation Zrotation
							End Site
							{
								OFFSET 0.000168 2310.654297 -282.823242
							}
						}
					}
				}
				JOINT mixamorig:RightShoulder
				{
					OFFSET -4.569970 11.014908 -2.160885
					CHANNELS 6 Xposition Yposition Zposition Xrotation Yrotation Zrotation
					JOINT mixamorig:RightArm
					{
						OFFSET -10.592851 -0.524811 -2.232101
						CHANNELS 6 Xposition Yposition Zposition Xrotation Yrotation Zrotation
						JOINT mixamorig:RightForeArm
						{
							OFFSET -27.841511 0.000031 -0.000004
							CHANNELS 6 Xposition Yposition Zposition Xrotation Yrotation Zrotation
							JOINT mixamorig:RightHand
							{
								OFFSET -28.328831 -0.000015 0.000015
								CHANNELS 6 Xposition Yposition Zposition Xrotation Yrotation Zrotation
								JOINT mixamorig:RightHandThumb1
								{
									OFFSET -2.464806 -1.573990 2.681852
									CHANNELS 6 Xposition Yposition Zposition Xrotation Yrotation Zrotation
									JOINT mixamorig:RightHandThumb2
									{
										OFFSET -3.215179 -1.872803 1.924282
										CHANNELS 6 Xposition Yposition Zposition Xrotation Yrotation Zrotation
										JOINT mixamorig:RightHandThumb3
										{
											OFFSET -2.654831 -1.527969 1.512609
											CHANNELS 6 Xposition Yposition Zposition Xrotation Yrotation Zrotation
											JOINT mixamorig:RightHandThumb4
											{
												OFFSET -2.018814 -1.152008 1.108052
												CHANNELS 6 Xposition Yposition Zposition Xrotation Yrotation Zrotation
												End Site
												{
													OFFSET -188.809540 -114.533607 132.431396
												}
											}
										}
									}
								}
								JOINT mixamorig:RightHandIndex1
								{
									OFFSET -9.108284 -0.517868 2.259835
									CHANNELS 6 Xposition Yposition Zposition Xrotation Yrotation Zrotation
									JOINT mixamorig:RightHandIndex2
									{
										OFFSET -3.699989 0.000000 0.001215
										CHANNELS 6 Xposition Yposition Zposition Xrotation Yrotation Zrotation
										JOINT mixamorig:RightHandIndex3
										{
											OFFSET -2.850006 0.000031 -0.000522
											CHANNELS 6 Xposition Yposition Zposition Xrotation Yrotation Zrotation
											JOINT mixamorig:RightHandIndex4
											{
												OFFSET -2.772186 -0.000015 -0.000020
												CHANNELS 6 Xposition Yposition Zposition Xrotation Yrotation Zrotation
												End Site
												{
													OFFSET -277.218445 0.000000 -0.050231
												}
											}
										}
									}
								}
								JOINT mixamorig:RightHandMiddle1
								{
									OFFSET -9.532516 -0.000031 -0.000023
									CHANNELS 6 Xposition Yposition Zposition Xrotation Yrotation Zrotation
									JOINT mixamorig:RightHandMiddle2
									{
										OFFSET -3.700005 -0.000015 0.003713
										CHANNELS 6 Xposition Yposition Zposition Xrotation Yrotation Zrotation
										JOINT mixamorig:RightHandMiddle3
										{
											OFFSET -2.949974 0.000015 -0.002054
											CHANNELS 6 Xposition Yposition Zposition Xrotation Yrotation Zrotation
											JOINT mixamorig:RightHandMiddle4
											{
												OFFSET -2.946640 0.000000 -0.000156
												CHANNELS 6 Xposition Yposition Zposition Xrotation Yrotation Zrotation
												End Site
												{
													OFFSET -294.664337 0.000000 -0.113670
												}
											}
										}
									}
								}
								JOINT mixamorig:RightHandRing1
								{
									OFFSET -9.103600 -0.043076 -1.865134
									CHANNELS 6 Xposition Yposition Zposition Xrotation Yrotation Zrotation
									JOINT mixamorig:RightHandRing2
									{
										OFFSET -3.379288 0.000000 -0.001055
										CHANNELS 6 Xposition Yposition Zposition Xrotation Yrotation Zrotation
										JOINT mixamorig:RightHandRing3
										{
											OFFSET -2.889687 -0.000015 0.000379
											CHANNELS 6 Xposition Yposition Zposition Xrotation Yrotation Zrotation
											JOINT mixamorig:RightHandRing4
											{
												OFFSET -2.638809 -0.000015 0.000941
												CHANNELS 6 Xposition Yposition Zposition Xrotation Yrotation Zrotation
												End Site
												{
													OFFSET -263.880371 0.000000 0.516020
												}
											}
										}
									}
								}
								JOINT mixamorig:RightHandPinky1
								{
									OFFSET -8.076683 -0.486710 -3.806280
									CHANNELS 6 Xposition Yposition Zposition Xrotation Yrotation Zrotation
									JOINT mixamorig:RightHandPinky2
									{
										OFFSET -3.600014 -0.000015 -0.003747
										CHANNELS 6 Xposition Yposition Zposition Xrotation Yrotation Zrotation
										JOINT mixamorig:RightHandPinky3
										{
											OFFSET -2.099983 0.000000 -0.005739
											CHANNELS 6 Xposition Yposition Zposition Xrotation Yrotation Zrotation
											JOINT mixamorig:RightHandPinky4
											{
												OFFSET -2.115768 -0.000031 -0.003680
												CHANNELS 6 Xposition Yposition Zposition Xrotation Yrotation Zrotation
												End Site
												{
													OFFSET -211.577087 0.000000 -0.350686
												}
											}
										}
									}
								}
							}
						}
					}
				}
				JOINT mixamorig:LeftShoulder
				{
					OFFSET 4.570447 11.014725 -2.160855
					CHANNELS 6 Xposition Yposition Zposition Xrotation Yrotation Zrotation
					JOINT mixamorig:LeftArm
					{
						OFFSET 10.592371 -0.524597 -2.232119
						CHANNELS 6 Xposition Yposition Zposition Xrotation Yrotation Zrotation
						JOINT mixamorig:LeftForeArm
						{
							OFFSET 27.841532 -0.000031 0.000026
							CHANNELS 6 Xposition Yposition Zposition Xrotation Yrotation Zrotation
							JOINT mixamorig:LeftHand
							{
								OFFSET 28.328846 -0.000061 0.000022
								CHANNELS 6 Xposition Yposition Zposition Xrotation Yrotation Zrotation
								JOINT mixamorig:LeftHandThumb1
								{
									OFFSET 2.466141 -1.576172 2.681732
									CHANNELS 6 Xposition Yposition Zposition Xrotation Yrotation Zrotation
									JOINT mixamorig:LeftHandThumb2
									{
										OFFSET 3.217812 -1.872070 1.916482
										CHANNELS 6 Xposition Yposition Zposition Xrotation Yrotation Zrotation
										JOINT mixamorig:LeftHandThumb3
										{
											OFFSET 2.656029 -1.528778 1.514513
											CHANNELS 6 Xposition Yposition Zposition Xrotation Yrotation Zrotation
											JOINT mixamorig:LeftHandThumb4
											{
												OFFSET 2.020889 -1.154053 1.115139
												CHANNELS 6 Xposition Yposition Zposition Xrotation Yrotation Zrotation
												End Site
												{
													OFFSET 190.885437 -115.081749 130.048782
												}
											}
										}
									}
								}
								JOINT mixamorig:LeftHandIndex1
								{
									OFFSET 9.109314 -0.518021 2.259871
									CHANNELS 6 Xposition Yposition Zposition Xrotation Yrotation Zrotation
									JOINT mixamorig:LeftHandIndex2
									{
										OFFSET 3.699989 0.000000 -0.000322
										CHANNELS 6 Xposition Yposition Zposition Xrotation Yrotation Zrotation
										JOINT mixamorig:LeftHandIndex3
										{
											OFFSET 2.850006 0.000000 0.000352
											CHANNELS 6 Xposition Yposition Zposition Xrotation Yrotation Zrotation
											JOINT mixamorig:LeftHandIndex4
											{
												OFFSET 2.774864 -0.000031 -0.000027
												CHANNELS 6 Xposition Yposition Zposition Xrotation Yrotation Zrotation
												End Site
												{
													OFFSET 277.486267 0.000000 -0.009857
												}
											}
										}
									}
								}
								JOINT mixamorig:LeftHandMiddle1
								{
									OFFSET 9.533394 0.000061 0.000044
									CHANNELS 6 Xposition Yposition Zposition Xrotation Yrotation Zrotation
									JOINT mixamorig:LeftHandMiddle2
									{
										OFFSET 3.699989 -0.000015 -0.000231
										CHANNELS 6 Xposition Yposition Zposition Xrotation Yrotation Zrotation
										JOINT mixamorig:LeftHandMiddle3
										{
											OFFSET 2.949997 -0.000015 -0.000059
											CHANNELS 6 Xposition Yposition Zposition Xrotation Yrotation Zrotation
											JOINT mixamorig:LeftHandMiddle4
											{
												OFFSET 2.952896 0.000031 0.000063
												CHANNELS 6 Xposition Yposition Zposition Xrotation Yrotation Zrotation
												End Site
												{
													OFFSET 295.289337 0.000000 0.022810
												}
											}
										}
									}
								}
								JOINT mixamorig:LeftHandRing1
								{
									OFFSET 9.104523 -0.042999 -1.865074
									CHANNELS 6 Xposition Yposition Zposition Xrotation Yrotation Zrotation
									JOINT mixamorig:LeftHandRing2
									{
										OFFSET 3.150009 -0.000031 0.000043
										CHANNELS 6 Xposition Yposition Zposition Xrotation Yrotation Zrotation
										JOINT mixamorig:LeftHandRing3
										{
											OFFSET 2.949982 -0.000015 0.000040
											CHANNELS 6 Xposition Yposition Zposition Xrotation Yrotation Zrotation
											JOINT mixamorig:LeftHandRing4
											{
												OFFSET 2.644348 0.000000 0.000057
												CHANNELS 6 Xposition Yposition Zposition Xrotation Yrotation Zrotation
												End Site
												{
													OFFSET 264.434631 0.000000 0.012105
												}
											}
										}
									}
								}
								JOINT mixamorig:LeftHandPinky1
								{
									OFFSET 8.077789 -0.486847 -3.806259
									CHANNELS 6 Xposition Yposition Zposition Xrotation Yrotation Zrotation
									JOINT mixamorig:LeftHandPinky2
									{
										OFFSET 3.599953 0.000031 0.014727
										CHANNELS 6 Xposition Yposition Zposition Xrotation Yrotation Zrotation
										JOINT mixamorig:LeftHandPinky3
										{
											OFFSET 2.100021 0.000015 0.007705
											CHANNELS 6 Xposition Yposition Zposition Xrotation Yrotation Zrotation
											JOINT mixamorig:LeftHandPinky4
											{
												OFFSET 2.125504 0.000031 0.007517
												CHANNELS 6 Xposition Yposition Zposition Xrotation Yrotation Zrotation
												End Site
												{
													OFFSET 212.550781 0.000000 0.625752
												}
											}
										}
									}
								}
							}
						}
					}
				}
			}
		}
	}
	JOINT mixamorig:RightUpLeg
	{
		OFFSET -8.207787 -6.751648 -1.599560
		CHANNELS 6 Xposition Yposition Zposition Xrotation Yrotation Zrotation
		JOINT mixamorig:RightLeg
		{
			OFFSET -0.000002 -44.370117 0.345942
			CHANNELS 6 Xposition Yposition Zposition Xrotation Yrotation Zrotation
			JOINT mixamorig:RightFoot
			{
				OFFSET 0.000003 -44.423679 -3.043532
				CHANNELS 6 Xposition Yposition Zposition Xrotation Yrotation Zrotation
				JOINT mixamorig:RightToeBase
				{
					OFFSET -0.000002 -8.728671 10.710558
					CHANNELS 6 Xposition Yposition Zposition Xrotation Yrotation Zrotation
					JOINT mixamorig:RightToe_End
					{
						OFFSET -0.000001 -0.000679 9.278119
						CHANNELS 6 Xposition Yposition Zposition Xrotation Yrotation Zrotation
						End Site
						{
							OFFSET 0.000000 -0.067690 927.812134
						}
					}
				}
			}
		}
	}
	JOINT mixamorig:LeftUpLeg
	{
		OFFSET 8.207793 -6.751686 -1.599556
		CHANNELS 6 Xposition Yposition Zposition Xrotation Yrotation Zrotation
		JOINT mixamorig:LeftLeg
		{
			OFFSET -0.000004 -44.370014 0.346954
			CHANNELS 6 Xposition Yposition Zposition Xrotation Yrotation Zrotation
			JOINT mixamorig:LeftFoot
			{
				OFFSET -0.000001 -44.423672 -3.044401
				CHANNELS 6 Xposition Yposition Zposition Xrotation Yrotation Zrotation
				JOINT mixamorig:LeftToeBase
				{
					OFFSET -0.000002 -8.728669 10.710558
					CHANNELS 6 Xposition Yposition Zposition Xrotation Yrotation Zrotation
					JOINT mixamorig:LeftToe_End
					{
						OFFSET -0.000003 -0.000679 9.278133
						CHANNELS 6 Xposition Yposition Zposition Xrotation Yrotation Zrotation
						End Site
						{
							OFFSET 0.000000 -0.068021 927.813477
						}
					}
				}
			}
		}
	}
}
MOTION
Frames: 3
Frame Time: 0.033333
0.000006 104.270477 1.554256 0.000010 0.000003 -0.000113 -0.000005 10.181587 0.131522 0.000001 -0.000003 0.000084 -0.000000 9.893967 -1.470711 0.000001 0.000000 -0.000000 -0.000000 9.220802 -1.370642 0.000000 -0.000000 -0.000000 0.000001 16.740433 -2.049030 0.000000 -0.000000 -0.000000 0.000000 9.617859 1.685014 0.000000 0.000000 0.000000 0.000002 22.037384 7.501101 0.000000 -0.000000 0.000000 -4.569968 11.014880 -2.160881 0.000008 0.000001 -0.000038 -10.592876 -0.524751 -2.231903 70.733227 27.683226 -19.839937 -27.841518 0.000008 0.000544 -50.132537 119.437141 77.389165 -28.328838 0.000008 0.000024 -0.000322 -0.000046 0.000008 -2.464406 -1.573776 2.682311 -49.854104 -162.424849 -15.011214 -3.215286 -1.872594 1.924646 154.829651 31.181040 1.056705 -2.654951 -1.527892 1.513084 144.535477 27.046851 -41.949396 -2.018826 -1.152001 1.108065 -0.000002 -0.000001 0.000002 -9.108383 -0.517555 2.260142 103.221343 14.294584 -18.044702 -3.700057 0.000328 0.001533 103.081092 10.637719 -13.341851 -2.850055 0.000385 -0.000220 103.921731 8.308690 -10.606774 -2.772174 -0.000014 -0.000019 0.000001 -0.000001 0.000001 -9.532597 0.000266 0.000299 103.794758 14.348201 -18.415751 -3.700071 0.000339 0.004019 105.396635 9.965645 -12.936088 -2.950047 0.000346 -0.001737 106.966138 9.478267 -12.767935 -2.946625 0.000012 -0.000158 -0.000000 -0.000001 0.000000 -9.103683 -0.042750 -1.864812 105.138646 16.265221 -21.093280 -3.379337 0.000330 -0.000764 106.918641 8.662200 -11.693864 -2.889754 0.000342 0.000728 111.472164 6.726991 -9.928601 -2.638811 -0.000017 0.000940 0.000000 -0.000000 0.000001 -8.076770 -0.486420 -3.805958 99.149546 20.465861 -23.750229 -3.600051 0.000290 -0.003444 102.980586 9.235743 -11.141993 -2.099995 0.000317 -0.005418 105.659222 4.684987 -5.890670 -2.115784 -0.000026 -0.003676 0.000001 -0.000000 -0.000003 4.570446 11.014691 -2.160851 -0.000018 0.000010 -0.000021 10.592485 -0.524562 -2.232359 40.505716 -62.929231 25.447613 27.841728 -0.000074 -0.000080 234.851383 -69.245161 253.855865 28.328836 -0.000013 0.000043 0.000024 -0.000090 -0.000001 2.466135 -1.576174 2.681858 114.470685 133.190109 -156.429637 3.217780 -1.872033 1.916507 257.865596 54.906033 52.341130 2.656046 -1.528790 1.514623 85.067465 139.929006 -137.944987 2.020882 -1.154048 1.115132 0.000003 -0.000001 0.000006 9.109415 -0.517752 2.259813 135.441039 -12.027753 28.810650 3.700045 0.000127 -0.000466 74.408982 -15.601130 11.888268 2.850017 0.000040 0.000232 216.423573 -175.521723 181.473673 2.774883 -0.000043 -0.000032 -0.000004 0.000002 -0.000002 9.533498 0.000310 -0.000021 126.327053 -14.971720 29.100991 3.700048 0.000108 -0.000359 429.612178 -17.480240 12.198649 2.950035 0.000049 -0.000175 403.600796 -6.902908 2.764984 2.952876 -0.000015 0.000053 -0.000000 -0.000000 0.000002 9.104648 -0.042795 -1.865148 129.366064 -19.253226 -320.545422 3.150035 0.000145 -0.000097 72.301780 -15.067563 11.038989 2.949987 0.000055 -0.000092 402.722734 -0.909378 0.356277 2.644315 0.000069 0.000069 -0.000003 -0.000002 -0.000005 8.077576 -0.486831 -3.806155 183.123423 -16.009690 -155.538967 3.599773 0.000007 0.014812 178.805378 -9.302746 170.911018 2.099722 0.000375 0.007786 181.604621 -1.048183 288.257834 2.125506 -0.000018 0.007512 -0.000000 -0.000000 0.000002 -8.207786 -6.751667 -1.599560 -0.077001 -0.000003 0.000080 -0.000002 -44.370110 0.345938 0.153719 -0.000000 -0.000000 0.000000 -44.423679 -3.043532 -0.076700 0.000000 -0.000002 -0.000006 -8.728667 10.710559 -0.000009 -0.000000 -0.000000 -0.000001 -0.000679 9.278123 0.000000 -0.000000 -0.000000 8.207792 -6.751710 -1.599556 -0.074518 -0.000003 0.000081 -0.000002 -44.370014 0.346960 0.148822 0.000002 0.000000 -0.000001 -44.423664 -3.044403 -0.074314 0.000000 -0.000002 -0.000004 -8.728671 10.710558 0.000007 -0.000000 -0.000000 0.000000 -0.000680 9.278137 -0.000000 0.000000 -0.000001 
0.000006 104.270477 1.554256 0.000010 0.000003 -0.000113 -0.000005 10.181587 0.131522 0.000001 -0.000003 0.000084 -0.000000 9.893967 -1.470711 0.000001 0.000000 -0.000000 -0.000000 9.220802 -1.370642 0.000000 -0.000000 -0.000000 0.000001 16.740433 -2.049030 0.000000 -0.000000 -0.000000 0.000000 9.617859 1.685014 0.000000 0.000000 0.000000 0.000002 22.037384 7.501101 0.000000 -0.000000 0.000000 -4.569968 11.014880 -2.160881 0.000008 0.000001 -0.000038 -10.592878 -0.524755 -2.231924 70.733029 27.824719 -19.943246 -27.841507 0.000008 0.000550 -50.315108 119.886158 78.126279 -28.328817 0.000022 0.000031 -0.000321 -0.000047 0.000009 -2.464407 -1.573789 2.682298 -48.900572 -160.844931 -12.611568 -3.215276 -1.872583 1.924653 154.271106 31.356569 2.525493 -2.654971 -1.527869 1.513079 144.232586 27.181093 -41.108955 -2.018830 -1.152014 1.108047 -0.000003 -0.000003 0.000000 -9.108370 -0.517549 2.260142 103.169147 14.464215 -18.240133 -3.700056 0.000319 0.001537 102.964248 10.880246 -13.617282 -2.850060 0.000378 -0.000229 103.631318 8.508425 -10.804999 -2.772165 -0.000002 -0.000024 -0.000001 0.000000 0.000000 -9.532590 0.000268 0.000300 103.926608 14.363220 -18.477757 -3.700062 0.000340 0.004028 105.406409 10.144338 -13.171400 -2.950060 0.000348 -0.001747 107.005493 9.585747 -12.921458 -2.946641 -0.000000 -0.000157 -0.000001 0.000001 0.000000 -9.103696 -0.042761 -1.864821 105.407010 16.604028 -21.631771 -3.379323 0.000317 -0.000735 107.300032 8.726741 -11.862320 -2.889760 0.000363 0.000714 111.702929 6.658260 -9.870510 -2.638822 -0.000027 0.000943 0.000002 -0.000002 -0.000001 -8.076757 -0.486397 -3.805959 99.920108 20.965011 -24.652309 -3.600041 0.000290 -0.003448 102.853715 9.073940 -10.915641 -2.100011 0.000335 -0.005421 105.127335 4.359759 -5.411373 -2.115758 -0.000041 -0.003683 -0.000000 -0.000000 -0.000004 4.570446 11.014691 -2.160851 -0.000018 0.000010 -0.000021 10.592484 -0.524578 -2.232360 40.239697 -62.552696 25.091492 27.841724 -0.000067 -0.000076 234.517605 -69.460333 253.243060 28.328829 -0.000029 0.000028 0.000019 -0.000088 0.000001 2.466121 -1.576185 2.681859 116.026486 127.685633 -156.749290 3.217754 -1.872037 1.916532 253.465096 59.474412 57.887096 2.656029 -1.528785 1.514586 83.562536 136.012439 -135.417858 2.020880 -1.154056 1.115129 0.000004 0.000005 0.000001 9.109406 -0.517743 2.259808 134.061765 -11.033977 25.647456 3.700046 0.000141 -0.000472 75.180261 -15.372683 11.876822 2.850023 0.000074 0.000239 216.788305 -175.264922 181.575019 2.774898 -0.000029 -0.000029 0.000002 0.000001 0.000002 9.533508 0.000292 -0.000029 125.672817 -13.939060 26.783159 3.700053 0.000114 -0.000377 430.097613 -17.203848 12.112253 2.950006 0.000034 -0.000171 403.657705 -7.176490 2.878904 2.952872 -0.000028 0.000063 -0.000000 -0.000000 0.000004 9.104647 -0.042783 -1.865149 128.995199 -18.710012 -321.890997 3.150046 0.000149 -0.000077 72.170306 -14.877701 10.873094 2.949991 0.000080 -0.000087 403.083696 -1.378272 0.544706 2.644322 0.000031 0.000051 0.000004 0.000000 0.000001 8.077563 -0.486855 -3.806159 183.853857 -16.341093 -151.316298 3.599789 -0.000009 0.014800 178.865661 -10.246825 172.358717 2.099721 0.000041 0.007778 179.982588 -2.513640 195.125814 2.125507 -0.000013 0.007515 0.000003 -0.000004 -0.000001 -8.207786 -6.751667 -1.599560 -0.077001 -0.000003 0.000080 -0.000002 -44.370110 0.345938 0.153719 -0.000000 -0.000000 0.000000 -44.423679 -3.043532 -0.076700 0.000000 -0.000002 -0.000006 -8.728667 10.710559 -0.000009 -0.000000 -0.000000 -0.000001 -0.000679 9.278123 0.000000 -0.000000 -0.000000 8.207792 -6.751710 -1.599556 -0.074518 -0.000003 0.000081 -0.000002 -44.370014 0.346960 0.148822 0.000002 0.000000 -0.000001 -44.423664 -3.044403 -0.074314 0.000000 -0.000002 -0.000004 -8.728671 10.710558 0.000007 -0.000000 -0.000000 0.000000 -0.000680 9.278137 -0.000000 0.000000 -0.000001 
0.000006 104.270477 1.554256 0.000010 0.000003 -0.000113 -0.000005 10.181587 0.131522 0.000001 -0.000003 0.000084 -0.000000 9.893967 -1.470711 0.000001 0.000000 -0.000000 -0.000000 9.220802 -1.370642 0.000000 -0.000000 -0.000000 0.000001 16.740433 -2.049030 0.000000 -0.000000 -0.000000 0.000000 9.617859 1.685014 0.000000 0.000000 0.000000 0.000002 22.037384 7.501101 0.000000 -0.000000 0.000000 -4.569968 11.014880 -2.160881 0.000008 0.000001 -0.000038 -10.592881 -0.524746 -2.231926 70.487033 25.695935 -18.308896 -27.841515 0.000017 0.000542 -50.471078 121.819060 80.537841 -28.328831 0.000007 0.000026 -0.000320 -0.000043 0.000008 -2.464404 -1.573762 2.682305 -49.911911 -162.067903 -15.145045 -3.215277 -1.872607 1.924645 153.374329 31.201380 2.201966 -2.654950 -1.527892 1.513074 143.596353 27.455706 -39.229260 -2.018831 -1.151981 1.108071 -0.000004 0.000000 0.000004 -9.108370 -0.517545 2.260140 103.082328 13.988250 -17.618065 -3.700069 0.000332 0.001538 102.883235 10.917462 -13.644163 -2.850066 0.000384 -0.000223 103.880695 8.840140 -11.275361 -2.772166 -0.000000 -0.000019 0.000000 0.000001 0.000001 -9.532581 0.000273 0.000281 104.185288 13.672901 -17.683307 -3.700067 0.000333 0.004013 105.824465 10.373318 -13.571411 -2.950045 0.000329 -0.001751 108.006656 10.051789 -13.795604 -2.946631 0.000013 -0.000156 0.000001 0.000001 -0.000001 -9.103686 -0.042760 -1.864807 105.820121 15.166172 -19.916096 -3.379334 0.000329 -0.000743 107.141838 8.248142 -11.182670 -2.889753 0.000338 0.000711 111.739791 6.997980 -10.376744 -2.638801 -0.000042 0.000938 0.000000 0.000002 -0.000000 -8.076754 -0.486399 -3.805966 98.884303 19.919075 -23.011208 -3.600024 0.000288 -0.003449 103.719742 8.336187 -10.153226 -2.100003 0.000318 -0.005422 106.954444 4.144993 -5.304778 -2.115775 -0.000029 -0.003686 -0.000000 -0.000001 -0.000006 4.570446 11.014691 -2.160851 -0.000018 0.000010 -0.000021 10.592483 -0.524573 -2.232359 39.529013 -62.552348 24.625426 27.841726 -0.000088 -0.000084 234.414742 -68.850950 253.747046 28.328829 -0.000028 0.000031 0.000019 -0.000092 -0.000001 2.466105 -1.576180 2.681834 115.307677 125.421329 -155.981617 3.217765 -1.872043 1.916534 251.727551 59.791100 59.467431 2.656011 -1.528807 1.514593 82.243148 135.834854 -134.441701 2.020883 -1.154055 1.115139 0.000007 0.000004 0.000006 9.109402 -0.517716 2.259797 134.531422 -10.510192 24.732667 3.700036 0.000113 -0.000451 73.727275 -15.383186 11.578339 2.850033 0.000084 0.000249 215.864809 -174.561781 181.760678 2.774871 -0.000043 -0.000016 0.000000 0.000002 0.000000 9.533499 0.000326 -0.000023 129.114822 -14.679963 30.281691 3.700055 0.000098 -0.000336 426.517228 -17.974669 11.841930 2.950023 0.000029 -0.000172 400.830635 -6.893432 2.569492 2.952879 -0.000016 0.000056 0.000001 0.000000 0.000001 9.104649 -0.042775 -1.865151 132.190238 -18.883211 -318.865442 3.150043 0.000144 -0.000091 71.941474 -14.443994 10.510595 2.950017 0.000079 -0.000072 403.178854 -0.729929 0.289443 2.644315 0.000032 0.000046 -0.000003 -0.000004 -0.000002 8.077545 -0.486792 -3.806158 185.484264 -16.001861 -140.440970 3.599729 -0.000010 0.014819 179.282548 -10.399745 176.860973 2.099768 -0.000008 0.007768 179.605971 -3.196052 180.347375 2.125525 -0.000027 0.007508 0.000000 -0.000000 0.000000 -8.207786 -6.751667 -1.599560 -0.077001 -0.000003 0.000080 -0.000002 -44.370110 0.345938 0.153719 -0.000000 -0.000000 0.000000 -44.423679 -3.043532 -0.076700 0.000000 -0.000002 -0.000006 -8.728667 10.710559 -0.000009 -0.000000 -0.000000 -0.000001 -0.000679 9.278123 0.000000 -0.000000 -0.000000 8.207792 -6.751710 -1.599556 -0.074518 -0.000003 0.000081 -0.000002 -44.370014 0.346960 0.148822 0.000002 0.000000 -0.000001 -44.423664 -3.044403 -0.074314 0.000000 -0.000002 -0.000004 -8.728671 10.710558 0.000007 -0.000000 -0.000000 0.000000 -0.000680 9.278137 -0.000000 0.000000 -0.000001 
